# xmcd
#
# Track frame offsets:
#	150
#	12175
#	31376
#	46597
#	64374
#	80116
#	93398
#	104982
#	125943
#	136990
#	156209
#	164514
#
# Disc length: 2444 seconds
#
# Revision: 1
# Processed by: cddbd v1.4PL0 Copyright (c) Steve Scherf et al.
# Submitted via: audiograbber 1.81.03
#
DISCID=aa098a0c
DTITLE=Robin Thrush Jr. Band - Born To Play The Blues
DYEAR=2002
DGENRE=Blues
TTITLE0=Hideaway
TTITLE1=Goin' Down
TTITLE2=Fade To Blue
TTITLE3=Mystery To Me
TTITLE4=Blues For Michael
TTITLE5=Before You Acuse Me
TTITLE6=All Behind Me Now
TTITLE7=To See You Smile
TTITLE8=She Won't Care
TTITLE9=Long Black Highway
TTITLE10=Freddie's Blues
TTITLE11=Highway Patrol
EXTD=
EXTT0=
EXTT1=
EXTT2=
EXTT3=
EXTT4=
EXTT5=
EXTT6=
EXTT7=
EXTT8=
EXTT9=
EXTT10=
EXTT11=
PLAYORDER=
